<mxfile host="65bd71144e">
    <diagram id="Bl6PnjhjwC42AaLjEG6b" name="Page-1">
        <mxGraphModel dx="1028" dy="486" grid="1" gridSize="10" guides="1" tooltips="1" connect="1" arrows="1" fold="1" page="1" pageScale="1" pageWidth="1169" pageHeight="827" math="0" shadow="0">
            <root>
                <mxCell id="0"/>
                <mxCell id="1" parent="0"/>
                <mxCell id="7M9YN8R-VSVWgkOiDR3j-6" value="&lt;p style=&quot;margin: 0px ; margin-top: 4px ; text-align: center ; text-decoration: underline&quot;&gt;&lt;b&gt;Proxy&lt;/b&gt;&lt;/p&gt;&lt;hr&gt;&lt;hr&gt;&lt;p style=&quot;margin: 0px ; margin-left: 8px&quot;&gt;+ addContato(Nome : String, Endereço : String, Telefone : String, E-mail : String) : Contato&lt;br&gt;+ listarTodos() : Contato&lt;br&gt;+ procContato(Busca : String) : Contato&lt;/p&gt;&lt;p style=&quot;margin: 0px ; margin-left: 8px&quot;&gt;+ ediContato(Nome : String, Endereço : String, Telefone : String, E-mail : String) : Bool&lt;/p&gt;&lt;p style=&quot;margin: 0px ; margin-left: 8px&quot;&gt;+ rmContato(Nome : String) : String&lt;/p&gt;&lt;p style=&quot;margin: 0px ; margin-left: 8px&quot;&gt;+ cleanAgenda() : void&lt;/p&gt;&lt;p style=&quot;margin: 0px ; margin-left: 8px&quot;&gt;+ finaliza() : void&lt;/p&gt;&lt;p style=&quot;margin: 0px ; margin-left: 8px&quot;&gt;+ doOperation(objectRef : string, method : string, args : byte[ ] ) : byte[ ]&lt;/p&gt;&lt;p style=&quot;margin: 0px ; margin-left: 8px&quot;&gt;+ empacotaMensagem(&lt;span style=&quot;font-size: 14px&quot;&gt;objectRef : string ,&amp;nbsp;&lt;/span&gt;&lt;span style=&quot;font-size: 14px&quot;&gt;method : string,&amp;nbsp;&lt;/span&gt;&lt;span style=&quot;font-size: 14px&quot;&gt;args&lt;/span&gt;&amp;nbsp;: byte[ ] ) : byte[ ]&lt;/p&gt;&lt;p style=&quot;margin: 0px ; margin-left: 8px&quot;&gt;+ desempacotaMensagem( reposta : byte[ ]) : Message&lt;/p&gt;" style="verticalAlign=top;align=left;overflow=fill;fontSize=12;fontFamily=Helvetica;html=1;fillColor=#fff2cc;strokeColor=#000000;" parent="1" vertex="1">
                    <mxGeometry x="111" y="340" width="499" height="180" as="geometry"/>
                </mxCell>
                <mxCell id="7M9YN8R-VSVWgkOiDR3j-23" value="&lt;p style=&quot;margin: 0px ; margin-top: 4px ; text-align: center ; text-decoration: underline&quot;&gt;&lt;b&gt;UDPClient&lt;/b&gt;&lt;/p&gt;&lt;hr&gt;&amp;nbsp;+ socket : DatagramSocket&lt;br&gt;&amp;nbsp;+ aHost : InetAdress&lt;br&gt;&amp;nbsp;+ serverPort : int&lt;br&gt;&amp;nbsp;+ request : DatagramPacket&lt;br&gt;&amp;nbsp;+ reply : DatagramPacket&lt;br&gt;&lt;hr&gt;&lt;p style=&quot;margin: 0px ; margin-left: 8px&quot;&gt;+sendRequest(request : String) : void&lt;/p&gt;&lt;p style=&quot;margin: 0px ; margin-left: 8px&quot;&gt;+getResponse() : String&lt;/p&gt;&lt;p style=&quot;margin: 0px ; margin-left: 8px&quot;&gt;+close() : void&lt;/p&gt;" style="verticalAlign=top;align=left;overflow=fill;fontSize=12;fontFamily=Helvetica;html=1;fillColor=#fff2cc;strokeColor=#000000;" parent="1" vertex="1">
                    <mxGeometry x="220.06" y="630" width="280.88" height="160" as="geometry"/>
                </mxCell>
                <mxCell id="7M9YN8R-VSVWgkOiDR3j-24" value="" style="endArrow=none;html=1;edgeStyle=orthogonalEdgeStyle;rounded=0;entryX=0.5;entryY=0;entryDx=0;entryDy=0;exitX=0.5;exitY=1;exitDx=0;exitDy=0;" parent="1" source="7M9YN8R-VSVWgkOiDR3j-6" target="7M9YN8R-VSVWgkOiDR3j-23" edge="1">
                    <mxGeometry relative="1" as="geometry">
                        <mxPoint x="276" y="526" as="sourcePoint"/>
                        <mxPoint x="276" y="621" as="targetPoint"/>
                        <Array as="points"/>
                    </mxGeometry>
                </mxCell>
                <mxCell id="Dt3MHsXyy18uynIRcyO2-14" style="edgeStyle=orthogonalEdgeStyle;rounded=0;orthogonalLoop=1;jettySize=auto;html=1;exitX=0.5;exitY=1;exitDx=0;exitDy=0;entryX=0.5;entryY=0;entryDx=0;entryDy=0;fontFamily=Helvetica;fontColor=#000000;endArrow=none;endFill=0;" parent="1" source="7M9YN8R-VSVWgkOiDR3j-27" target="Dt3MHsXyy18uynIRcyO2-10" edge="1">
                    <mxGeometry relative="1" as="geometry"/>
                </mxCell>
                <mxCell id="7M9YN8R-VSVWgkOiDR3j-27" value="&lt;p style=&quot;margin: 0px ; margin-top: 4px ; text-align: center ; text-decoration: underline&quot;&gt;&lt;b&gt;UDPServer&lt;/b&gt;&lt;/p&gt;&lt;hr&gt;&amp;nbsp;+ serverPort : int&lt;br&gt;&amp;nbsp;+ aSocket : DatagramSocket&lt;br&gt;&amp;nbsp;+ request : DatagramPacket&lt;br&gt;&amp;nbsp;+ reply :&amp;nbsp;DatagramPacket&lt;br&gt;&amp;nbsp;+ c : Connection&lt;br&gt;&lt;hr&gt;&lt;p style=&quot;margin: 0px ; margin-left: 8px&quot;&gt;+main (args[ ] : string) : void&lt;/p&gt;" style="verticalAlign=top;align=left;overflow=fill;fontSize=12;fontFamily=Helvetica;html=1;fillColor=#fff2cc;strokeColor=#000000;" parent="1" vertex="1">
                    <mxGeometry x="801.75" y="40" width="215.5" height="150" as="geometry"/>
                </mxCell>
                <mxCell id="7M9YN8R-VSVWgkOiDR3j-28" value="&lt;p style=&quot;margin: 0px ; margin-top: 4px ; text-align: center ; text-decoration: underline&quot;&gt;&lt;b&gt;Despachante&lt;/b&gt;&lt;/p&gt;&lt;hr&gt;&amp;nbsp;+ selecionaEsqueleto (request : Message) : byte [ ]" style="verticalAlign=top;align=left;overflow=fill;fontSize=12;fontFamily=Helvetica;html=1;fillColor=#fff2cc;strokeColor=#000000;" parent="1" vertex="1">
                    <mxGeometry x="769.25" y="413.5" width="280.5" height="56.5" as="geometry"/>
                </mxCell>
                <mxCell id="Dt3MHsXyy18uynIRcyO2-8" style="edgeStyle=orthogonalEdgeStyle;rounded=0;orthogonalLoop=1;jettySize=auto;html=1;exitX=0.5;exitY=0;exitDx=0;exitDy=0;entryX=0.5;entryY=1;entryDx=0;entryDy=0;fontFamily=Helvetica;fontColor=#000000;endArrow=none;endFill=0;" parent="1" source="7M9YN8R-VSVWgkOiDR3j-33" target="7M9YN8R-VSVWgkOiDR3j-28" edge="1">
                    <mxGeometry relative="1" as="geometry"/>
                </mxCell>
                <mxCell id="7M9YN8R-VSVWgkOiDR3j-33" value="&lt;p style=&quot;margin: 0px ; margin-top: 4px ; text-align: center ; text-decoration: underline&quot;&gt;&lt;b&gt;Esqueleto&lt;/b&gt;&lt;/p&gt;&lt;hr&gt;&amp;nbsp; + servente : Agenda&lt;br&gt;&lt;hr&gt;&lt;p style=&quot;margin: 0px ; margin-left: 8px&quot;&gt;+ addContato(args : String)&lt;br&gt;+ listarTodos(args : String)&lt;br&gt;+ procContato(args : String)&lt;/p&gt;&lt;p style=&quot;margin: 0px ; margin-left: 8px&quot;&gt;+ ediContato(args : String)&lt;/p&gt;&lt;p style=&quot;margin: 0px ; margin-left: 8px&quot;&gt;+ rmContato(args : String)&lt;/p&gt;&lt;p style=&quot;margin: 0px ; margin-left: 8px&quot;&gt;+ cleanAgenda(args : String)&lt;/p&gt;" style="verticalAlign=top;align=left;overflow=fill;fontSize=12;fontFamily=Helvetica;html=1;fillColor=#fff2cc;strokeColor=#000000;" parent="1" vertex="1">
                    <mxGeometry x="784.5" y="520" width="250" height="158" as="geometry"/>
                </mxCell>
                <mxCell id="7M9YN8R-VSVWgkOiDR3j-37" style="edgeStyle=orthogonalEdgeStyle;rounded=0;orthogonalLoop=1;jettySize=auto;html=1;exitX=0.5;exitY=0;exitDx=0;exitDy=0;entryX=0.5;entryY=1;entryDx=0;entryDy=0;startArrow=none;startFill=0;endArrow=none;endFill=0;" parent="1" source="7M9YN8R-VSVWgkOiDR3j-36" target="7M9YN8R-VSVWgkOiDR3j-33" edge="1">
                    <mxGeometry relative="1" as="geometry"/>
                </mxCell>
                <mxCell id="7M9YN8R-VSVWgkOiDR3j-36" value="&lt;p style=&quot;margin: 0px ; margin-top: 4px ; text-align: center ; text-decoration: underline&quot;&gt;&lt;b&gt;Agenda&lt;/b&gt;&lt;/p&gt;&lt;hr&gt;&amp;nbsp; + Contatos : vector&amp;lt;&amp;gt;&lt;hr&gt;&lt;p style=&quot;margin: 0px ; margin-left: 8px&quot;&gt;+ addContato(Nome : String, Endereço : String, Telefone : String, E-mail : String) : Contato&lt;br&gt;+ listarTodos() : Contato&lt;br&gt;+ procContato(Busca : String) : Contato&lt;/p&gt;&lt;p style=&quot;margin: 0px ; margin-left: 8px&quot;&gt;+ ediContato(Nome : String, Endereço : String, Telefone : String, E-mail : String) : Bool&lt;/p&gt;&lt;p style=&quot;margin: 0px ; margin-left: 8px&quot;&gt;+ rmContato(Nome : String) : String&lt;/p&gt;&lt;p style=&quot;margin: 0px ; margin-left: 8px&quot;&gt;+ cleanAgenda() : void&lt;/p&gt;" style="verticalAlign=top;align=left;overflow=fill;fontSize=12;fontFamily=Helvetica;html=1;fillColor=#fff2cc;strokeColor=#000000;" parent="1" vertex="1">
                    <mxGeometry x="660" y="710" width="499" height="150" as="geometry"/>
                </mxCell>
                <mxCell id="Dt3MHsXyy18uynIRcyO2-2" value="" style="edgeStyle=orthogonalEdgeStyle;rounded=0;orthogonalLoop=1;jettySize=auto;html=1;endArrow=none;endFill=0;" parent="1" source="Dt3MHsXyy18uynIRcyO2-1" target="7M9YN8R-VSVWgkOiDR3j-36" edge="1">
                    <mxGeometry relative="1" as="geometry"/>
                </mxCell>
                <mxCell id="Dt3MHsXyy18uynIRcyO2-1" value="&lt;p style=&quot;margin: 0px ; margin-top: 4px ; text-align: center&quot;&gt;&lt;b&gt;Contato&lt;/b&gt;&lt;/p&gt;&lt;hr size=&quot;1&quot;&gt;&amp;nbsp;+ Name : String&lt;br&gt;&amp;nbsp;+ Fone : String&lt;br&gt;&lt;div style=&quot;height: 2px&quot;&gt;&lt;br&gt;&lt;/div&gt;&lt;hr size=&quot;1&quot;&gt;&lt;div style=&quot;height: 2px&quot;&gt;&amp;nbsp;+ Contato : Contato&lt;/div&gt;" style="verticalAlign=top;align=left;overflow=fill;fontSize=12;fontFamily=Helvetica;html=1;fillColor=#fff2cc;strokeColor=#000000;" parent="1" vertex="1">
                    <mxGeometry x="839.5" y="880" width="140" height="100" as="geometry"/>
                </mxCell>
                <mxCell id="Dt3MHsXyy18uynIRcyO2-7" style="edgeStyle=orthogonalEdgeStyle;rounded=0;orthogonalLoop=1;jettySize=auto;html=1;exitX=0.5;exitY=1;exitDx=0;exitDy=0;entryX=0.5;entryY=0;entryDx=0;entryDy=0;endArrow=none;endFill=0;" parent="1" source="Dt3MHsXyy18uynIRcyO2-6" target="7M9YN8R-VSVWgkOiDR3j-6" edge="1">
                    <mxGeometry relative="1" as="geometry"/>
                </mxCell>
                <mxCell id="Dt3MHsXyy18uynIRcyO2-6" value="&lt;p style=&quot;margin: 0px ; margin-top: 4px ; text-align: center&quot;&gt;&lt;b&gt;User&lt;/b&gt;&lt;/p&gt;&lt;hr size=&quot;1&quot;&gt;&lt;p style=&quot;margin: 0px ; margin-left: 4px&quot;&gt;+ proxy : AddressBookProxy&lt;/p&gt;&lt;hr size=&quot;1&quot;&gt;&lt;p style=&quot;margin: 0px ; margin-left: 4px&quot;&gt;+ selecionaOperacao() : int&lt;/p&gt;&lt;p style=&quot;margin: 0px ; margin-left: 4px&quot;&gt;+ printMenu() : void&lt;/p&gt;&lt;p style=&quot;margin: 0px ; margin-left: 4px&quot;&gt;+ main() : void&lt;/p&gt;" style="verticalAlign=top;align=left;overflow=fill;fontSize=12;fontFamily=Helvetica;html=1;strokeColor=#000000;fillColor=#fff2cc;" parent="1" vertex="1">
                    <mxGeometry x="245.75" y="120" width="229.5" height="110" as="geometry"/>
                </mxCell>
                <mxCell id="Dt3MHsXyy18uynIRcyO2-11" style="edgeStyle=orthogonalEdgeStyle;rounded=0;orthogonalLoop=1;jettySize=auto;html=1;exitX=0.5;exitY=1;exitDx=0;exitDy=0;entryX=0.5;entryY=0;entryDx=0;entryDy=0;fontFamily=Helvetica;fontColor=#000000;endArrow=none;endFill=0;" parent="1" source="Dt3MHsXyy18uynIRcyO2-10" target="7M9YN8R-VSVWgkOiDR3j-28" edge="1">
                    <mxGeometry relative="1" as="geometry"/>
                </mxCell>
                <mxCell id="Dt3MHsXyy18uynIRcyO2-10" value="&lt;p style=&quot;margin: 0px ; margin-top: 4px ; text-align: center ; text-decoration: underline&quot;&gt;&lt;b&gt;Connection&lt;/b&gt;&lt;/p&gt;&lt;hr&gt;&amp;nbsp; + despachante : AddressBookDespachante&lt;br&gt;&lt;hr&gt;&lt;p style=&quot;margin: 0px ; margin-left: 8px&quot;&gt;+getRequest() : byte [ ]&amp;nbsp;&lt;/p&gt;&lt;p style=&quot;margin: 0px ; margin-left: 8px&quot;&gt;+sendReply( request : byte [ ] ) : void&lt;br&gt;&lt;/p&gt;&lt;p style=&quot;margin: 0px ; margin-left: 8px&quot;&gt;+&lt;font style=&quot;font-size: 12px&quot;&gt;desempacotaRequisicao ( array : byte [ ] ) : Message&lt;/font&gt;&lt;/p&gt;&lt;p style=&quot;margin: 0px ; margin-left: 8px&quot;&gt;+empacotaResposta ( resultado : byte [ ], requestId : int ) : Message&lt;span style=&quot;background-color: rgb(255 , 244 , 195)&quot;&gt;&lt;font style=&quot;font-size: 12px&quot;&gt;&lt;br&gt;&lt;/font&gt;&lt;/span&gt;&lt;/p&gt;&lt;p style=&quot;margin: 0px ; margin-left: 8px&quot;&gt;+Connection : Connection&lt;/p&gt;&lt;p style=&quot;margin: 0px ; margin-left: 8px&quot;&gt;+run () : void&lt;/p&gt;" style="verticalAlign=top;align=left;overflow=fill;fontSize=12;fontFamily=Helvetica;html=1;fillColor=#fff2cc;strokeColor=#000000;" parent="1" vertex="1">
                    <mxGeometry x="719.5" y="220" width="380" height="160" as="geometry"/>
                </mxCell>
            </root>
        </mxGraphModel>
    </diagram>
</mxfile>